<svg width="24" height="24" viewBox="0 0 24 24" fill="none" xmlns="http://www.w3.org/2000/svg">
<g clip-path="url(#clip0_82_1280)">
<path d="M5.13758 14.0092L4.33065 17.0216L1.38136 17.084C0.499949 15.4491 0 13.5787 0 11.5911C0 9.669 0.46744 7.85647 1.29601 6.2605H1.29664L3.92235 6.74188L5.07256 9.35183C4.83182 10.0537 4.70061 10.8071 4.70061 11.5911C4.7007 12.4419 4.85482 13.2571 5.13758 14.0092Z" fill="#555555"/>
<path d="M22.9793 9.42529C23.1124 10.1265 23.1818 10.8506 23.1818 11.5906C23.1818 12.4205 23.0945 13.2299 22.9283 14.0107C22.3641 16.6677 20.8897 18.9878 18.8473 20.6296L18.8467 20.629L15.5395 20.4602L15.0714 17.5383C16.4266 16.7435 17.4858 15.4997 18.0437 14.0107H11.8457V9.42529H18.1341H22.9793Z" fill="#555555"/>
<path d="M18.8467 20.6293L18.8473 20.63C16.861 22.2266 14.3377 23.1819 11.5909 23.1819C7.1768 23.1819 3.33908 20.7147 1.38135 17.0839L5.13757 14.0092C6.11642 16.6215 8.63649 18.4812 11.5909 18.4812C12.8608 18.4812 14.0505 18.1379 15.0713 17.5386L18.8467 20.6293Z" fill="#555555"/>
<path d="M18.9892 2.66844L15.2343 5.74257C14.1777 5.08216 12.9288 4.70066 11.5908 4.70066C8.56951 4.70066 6.00231 6.64562 5.0725 9.35169L1.29653 6.26036H1.2959C3.22497 2.54108 7.11109 0 11.5908 0C14.4032 0 16.9818 1.0018 18.9892 2.66844Z" fill="#555555"/>
</g>
<defs>
<clipPath id="clip0_82_1280">
<rect width="23.1818" height="23.1818" fill="white"/>
</clipPath>
</defs>
</svg>
